<svg xmlns="http://www.w3.org/2000/svg" xmlns:xlink="http://www.w3.org/1999/xlink" width="2000" zoomAndPan="magnify" viewBox="0 0 1500 1499.999933" height="2000" preserveAspectRatio="xMidYMid meet" version="1.0"><defs><clipPath id="e9276376cf"><path d="M 840.890625 709 L 1447.640625 709 L 1447.640625 991 L 840.890625 991 Z M 840.890625 709 " clip-rule="nonzero"/></clipPath><clipPath id="9f0841865c"><path d="M 973 399.277344 L 1298 399.277344 L 1298 725 L 973 725 Z M 973 399.277344 " clip-rule="nonzero"/></clipPath><clipPath id="feae7d9699"><path d="M 52.605469 709 L 659.355469 709 L 659.355469 991 L 52.605469 991 Z M 52.605469 709 " clip-rule="nonzero"/></clipPath><clipPath id="5b5a9f3868"><path d="M 184 399.277344 L 510 399.277344 L 510 725 L 184 725 Z M 184 399.277344 " clip-rule="nonzero"/></clipPath><clipPath id="1b8900371c"><path d="M 424.378906 736 L 1071.628906 736 L 1071.628906 1038 L 424.378906 1038 Z M 424.378906 736 " clip-rule="nonzero"/></clipPath><clipPath id="12536fb3f6"><path d="M 444.5625 765 L 1051.3125 765 L 1051.3125 1048 L 444.5625 1048 Z M 444.5625 765 " clip-rule="nonzero"/></clipPath><clipPath id="998b371b39"><path d="M 576 455.503906 L 902 455.503906 L 902 781 L 576 781 Z M 576 455.503906 " clip-rule="nonzero"/></clipPath></defs><g clip-path="url(#e9276376cf)"><path fill="#ffffff" d="M 1251.320312 709.308594 C 1219.417969 734.410156 1179.246094 749.4375 1135.597656 749.4375 C 1093.035156 749.4375 1053.746094 735.160156 1022.242188 711.160156 C 919.425781 727.777344 840.890625 816.921875 840.890625 924.433594 C 840.890625 1043.789062 937.636719 966.195312 1056.976562 966.195312 L 1231.296875 966.195312 C 1350.644531 966.195312 1447.394531 1043.789062 1447.394531 924.433594 C 1447.394531 811.855469 1361.269531 719.410156 1251.320312 709.308594 Z M 1251.320312 709.308594 " fill-opacity="1" fill-rule="nonzero"/></g><g clip-path="url(#9f0841865c)"><path fill="#ffffff" d="M 1135.597656 724.289062 C 1225.125 724.289062 1297.953125 651.449219 1297.953125 561.914062 C 1297.953125 472.386719 1225.125 399.546875 1135.597656 399.546875 C 1046.070312 399.546875 973.238281 472.386719 973.238281 561.914062 C 973.242188 651.449219 1046.078125 724.289062 1135.597656 724.289062 Z M 1135.597656 724.289062 " fill-opacity="1" fill-rule="nonzero"/></g><g clip-path="url(#feae7d9699)"><path fill="#ffffff" d="M 463.03125 709.308594 C 431.128906 734.410156 390.960938 749.4375 347.3125 749.4375 C 304.75 749.4375 265.460938 735.160156 233.957031 711.160156 C 131.140625 727.777344 52.605469 816.921875 52.605469 924.433594 C 52.605469 1043.789062 149.347656 966.195312 268.6875 966.195312 L 443.011719 966.195312 C 562.359375 966.195312 659.109375 1043.789062 659.109375 924.433594 C 659.109375 811.855469 572.984375 719.410156 463.03125 709.308594 Z M 463.03125 709.308594 " fill-opacity="1" fill-rule="nonzero"/></g><g clip-path="url(#5b5a9f3868)"><path fill="#ffffff" d="M 347.3125 724.289062 C 436.839844 724.289062 509.664062 651.449219 509.664062 561.914062 C 509.664062 472.386719 436.839844 399.546875 347.3125 399.546875 C 257.785156 399.546875 184.949219 472.386719 184.949219 561.914062 C 184.957031 651.449219 257.792969 724.289062 347.3125 724.289062 Z M 347.3125 724.289062 " fill-opacity="1" fill-rule="nonzero"/></g><g clip-path="url(#1b8900371c)"><path fill="#4e9a73" d="M 862.125 736.585938 C 828.101562 763.359375 785.257812 779.386719 738.703125 779.386719 C 693.304688 779.386719 651.402344 764.15625 617.800781 738.5625 C 508.140625 756.285156 424.378906 851.363281 424.378906 966.03125 C 424.378906 1093.328125 527.5625 1010.574219 654.847656 1010.574219 L 840.773438 1010.574219 C 968.0625 1010.574219 1071.253906 1093.328125 1071.253906 966.03125 C 1071.253906 845.957031 979.398438 747.359375 862.125 736.585938 Z M 862.125 736.585938 " fill-opacity="1" fill-rule="nonzero"/></g><path fill="#4e9a73" d="M 738.703125 752.5625 C 834.1875 752.5625 911.863281 674.875 911.863281 579.378906 C 911.863281 483.894531 834.1875 406.203125 738.703125 406.203125 C 643.214844 406.203125 565.535156 483.894531 565.535156 579.378906 C 565.542969 674.875 643.222656 752.5625 738.703125 752.5625 Z M 738.703125 752.5625 " fill-opacity="1" fill-rule="nonzero"/><g clip-path="url(#12536fb3f6)"><path fill="#ffffff" d="M 854.992188 765.535156 C 823.089844 790.636719 782.917969 805.667969 739.269531 805.667969 C 696.707031 805.667969 657.421875 791.386719 625.914062 767.390625 C 523.101562 784.007812 444.5625 873.148438 444.5625 980.664062 C 444.5625 1100.015625 541.308594 1022.425781 660.648438 1022.425781 L 834.972656 1022.425781 C 954.316406 1022.425781 1051.066406 1100.015625 1051.066406 980.664062 C 1051.066406 868.082031 964.945312 775.636719 854.992188 765.535156 Z M 854.992188 765.535156 " fill-opacity="1" fill-rule="nonzero"/></g><g clip-path="url(#998b371b39)"><path fill="#ffffff" d="M 739.269531 780.515625 C 828.796875 780.515625 901.625 707.675781 901.625 618.140625 C 901.625 528.617188 828.796875 455.773438 739.269531 455.773438 C 649.746094 455.773438 576.910156 528.617188 576.910156 618.140625 C 576.917969 707.675781 649.75 780.515625 739.269531 780.515625 Z M 739.269531 780.515625 " fill-opacity="1" fill-rule="nonzero"/></g></svg>